# xmcd
#
# Track frame offsets:
#	150
#	19877
#	33732
#	48498
#	62846
#	76239
#	89859
#	103972
#	122001
#	134861
#	149244
#	161056
#	174374
#	191862
#	199848
#	212543
#	227593
#	243604
#	255272
#	271283
#
# Disc length: 3806 seconds
#
# Revision: 0
# Processed by: cddbd v1.5.2PL0 Copyright (c) Steve Scherf et al.
# Submitted via: EasyCDDAExtractor 12.0.1.1
#
DISCID=380edc14
DTITLE=Various Artist - Dansefestivalen I Sel 2008 [cd2]
DYEAR=2008
DGENRE=Danseband
TTITLE0=Anne Nørdsti and Lasse Stefanz - Innan Livet Försvinner
TTITLE1=Fernandoz - Nei, Så Tjock Du Har Blitt
TTITLE2=Four Jets - Vi Har Det Så Bra
TTITLE3=Dænsebændet - Mænn Frå Vestopplænd
TTITLE4=New Jordal Swingers - Fyrige Damer
TTITLE5=Face 84 - Alla Gamla X
TTITLE6=Picazzo - Jeg Vil Se Deg N***n
TTITLE7=Det Betales - Beatles-Medley
TTITLE8=Wizex - Dagen E' I Dag (Sha la la La)
TTITLE9=Steinar Engelbrektson Band - La Meg Få Være Din Venn
TTITLE10=Dalakopa - Ringlender Etter'N Helmer Kjølvang
TTITLE11=Småviltlaget - Flageolettvalsen
TTITLE12=Jan Borseths - Ta Dæ Tid
TTITLE13=Orsa Spelmän - Stjuls På Källhagen
TTITLE14=Aage Sogns - Trollkatten
TTITLE15=Lasse Johansen - Calle Schewens Vals
TTITLE16=Odd Sundt - En Vakker Natt
TTITLE17=Fyrun and Runningen - Lover'S Song
TTITLE18=Grass - Lay Me Down
TTITLE19=Vandrerne - Frøken Sagen
EXTD=
EXTT0=
EXTT1=
EXTT2=
EXTT3=
EXTT4=
EXTT5=
EXTT6=
EXTT7=
EXTT8=
EXTT9=
EXTT10=
EXTT11=
EXTT12=
EXTT13=
EXTT14=
EXTT15=
EXTT16=
EXTT17=
EXTT18=
EXTT19=
PLAYORDER=
